<svg width="40" height="40" viewBox="0 0 40 40" fill="none" xmlns="http://www.w3.org/2000/svg">
<g id="free-icon-checkmark-4855230">
<g id="Group">
<path id="Vector" opacity="0.964" fill-rule="evenodd" clip-rule="evenodd" d="M18.2422 1.21094C25.5216 0.834375 31.2898 3.56875 35.5469 9.41407C39.125 15.0816 39.6979 21.0452 37.2656 27.3047C34.5255 33.3448 29.9031 37.0557 23.3984 38.4375C16.2855 39.5045 10.3349 37.3821 5.54688 32.0703C1.43059 26.8539 0.23267 21.0206 1.95313 14.5703C4.02344 8.22915 8.22914 4.02344 14.5703 1.95313C15.7857 1.60852 17.0096 1.36112 18.2422 1.21094ZM19.8828 3.71094C26.0479 3.93376 30.7484 6.64209 33.9844 11.8359C36.5016 16.4793 36.8141 21.271 34.9219 26.2109C31.9123 32.6007 26.8602 35.9341 19.7656 36.2109C13.4652 35.8622 8.75156 32.9716 5.625 27.5391C3.46889 23.1726 3.20847 18.6934 4.84375 14.1016C7.04756 8.85134 10.9148 5.53103 16.4453 4.14063C17.5918 3.90617 18.7377 3.76294 19.8828 3.71094Z" fill="#0074FF"/>
</g>
<g id="Group_2">
<path id="Vector_2" opacity="0.96" fill-rule="evenodd" clip-rule="evenodd" d="M25.8203 14.336C26.822 14.2097 27.3688 14.6394 27.4609 15.625C27.4791 15.8953 27.414 16.1427 27.2656 16.3672C24.2578 19.375 21.25 22.3828 18.2422 25.3906C17.7213 25.651 17.2005 25.651 16.6797 25.3906C15.3385 24.0495 13.9974 22.7084 12.6563 21.3672C12.377 20.8022 12.403 20.2553 12.7344 19.7266C13.2725 19.2886 13.8584 19.2235 14.4922 19.5313C15.4557 20.4948 16.4193 21.4584 17.3828 22.4219C17.4349 22.474 17.487 22.474 17.5391 22.4219C20.1693 19.7917 22.7995 17.1615 25.4297 14.5313C25.5715 14.4721 25.7016 14.407 25.8203 14.336Z" fill="#0074FF"/>
</g>
</g>
</svg>
