<svg width="28" height="28" viewBox="0 0 28 28" fill="none" xmlns="http://www.w3.org/2000/svg">
<g id="free-icon-time-4854764" clip-path="url(#clip0_41_1744)">
<g id="Group">
<path id="Vector" opacity="0.964" fill-rule="evenodd" clip-rule="evenodd" d="M12.7695 0.847661C17.8651 0.584062 21.9029 2.49812 24.8828 6.58985C27.3875 10.5572 27.7885 14.7317 26.0859 19.1133C24.1678 23.3413 20.9322 25.939 16.3789 26.9063C11.3998 27.6531 7.23446 26.1675 3.88282 22.4492C1.00142 18.7977 0.162881 14.7144 1.3672 10.1992C2.81642 5.7604 5.76041 2.81641 10.1992 1.36719C11.05 1.12596 11.9067 0.952787 12.7695 0.847661ZM13.918 2.59766C18.2335 2.75363 21.5239 4.64947 23.7891 8.28516C25.5512 11.5355 25.7699 14.8897 24.4453 18.3477C22.3387 22.8205 18.8022 25.1539 13.8359 25.3477C9.42562 25.1035 6.12611 23.0801 3.93751 19.2773C2.42824 16.2208 2.24594 13.0854 3.39064 9.8711C4.93331 6.19593 7.64035 3.87172 11.5117 2.89844C12.3143 2.73432 13.1164 2.63406 13.918 2.59766Z" fill="#F4F4F4"/>
</g>
<g id="Group_2">
<path id="Vector_2" opacity="0.961" fill-rule="evenodd" clip-rule="evenodd" d="M13.6445 3.03514C14.1838 2.91754 14.5757 3.09983 14.8203 3.58201C14.8568 4.09243 14.8568 4.60285 14.8203 5.11326C14.5757 5.60446 14.1838 5.77766 13.6445 5.63279C13.3985 5.53255 13.2253 5.35935 13.125 5.11326C13.0885 4.60285 13.0885 4.09243 13.125 3.58201C13.2356 3.33482 13.4088 3.15253 13.6445 3.03514Z" fill="#F4F4F4"/>
</g>
<g id="Group_3">
<path id="Vector_3" opacity="0.942" fill-rule="evenodd" clip-rule="evenodd" d="M6.58987 5.98829C6.87846 5.95717 7.1519 6.00278 7.41019 6.12501C7.67449 6.38931 7.93885 6.65367 8.20315 6.91797C8.56814 7.70099 8.33118 8.19318 7.49222 8.39454C7.28785 8.36856 7.09644 8.30474 6.918 8.20313C6.57664 7.89847 6.27586 7.56121 6.01565 7.19141C5.87986 6.61944 6.07127 6.21836 6.58987 5.98829Z" fill="#F4F4F4"/>
</g>
<g id="Group_4">
<path id="Vector_4" opacity="0.942" fill-rule="evenodd" clip-rule="evenodd" d="M20.7539 5.98826C21.8082 5.93959 22.1637 6.41357 21.8203 7.41014C21.556 7.67444 21.2916 7.9388 21.0273 8.20311C20.2443 8.56809 19.7521 8.33113 19.5508 7.49217C19.5768 7.2878 19.6406 7.0964 19.7422 6.91795C20.0574 6.57511 20.3946 6.2652 20.7539 5.98826Z" fill="#F4F4F4"/>
</g>
<g id="Group_5">
<path id="Vector_5" opacity="0.979" fill-rule="evenodd" clip-rule="evenodd" d="M13.6445 7.41013C14.1837 7.29255 14.5757 7.47482 14.8203 7.957C14.8567 10.0716 14.8567 12.1862 14.8203 14.3008C14.7838 14.3737 14.7474 14.4466 14.7109 14.5195C13.9179 15.3125 13.125 16.1054 12.332 16.8984C11.3275 17.2426 10.8627 16.8871 10.9375 15.832C11.6085 15.0515 12.3194 14.3041 13.0703 13.5898C13.0885 11.7122 13.1067 9.83459 13.125 7.957C13.2355 7.70982 13.4087 7.52754 13.6445 7.41013Z" fill="#F4F4F4"/>
</g>
<g id="Group_6">
<path id="Vector_6" opacity="0.961" fill-rule="evenodd" clip-rule="evenodd" d="M3.58208 13.0976C4.09282 13.0886 4.60324 13.0976 5.11333 13.125C5.60453 13.3696 5.77773 13.7615 5.63286 14.3008C5.53262 14.5469 5.35942 14.7201 5.11333 14.8203C4.60291 14.8568 4.09249 14.8568 3.58208 14.8203C3.09087 14.5757 2.91769 14.1837 3.06255 13.6445C3.17314 13.3973 3.34632 13.2151 3.58208 13.0976Z" fill="#F4F4F4"/>
</g>
<g id="Group_7">
<path id="Vector_7" opacity="0.961" fill-rule="evenodd" clip-rule="evenodd" d="M22.8321 13.0976C23.3428 13.0886 23.8533 13.0976 24.3633 13.125C24.8545 13.3696 25.0277 13.7615 24.8829 14.3008C24.7826 14.5469 24.6094 14.7201 24.3633 14.8203C23.8529 14.8568 23.3425 14.8568 22.8321 14.8203C22.3409 14.5757 22.1677 14.1837 22.3125 13.6445C22.4231 13.3973 22.5963 13.2151 22.8321 13.0976Z" fill="#F4F4F4"/>
</g>
<g id="Group_8">
<path id="Vector_8" opacity="0.945" fill-rule="evenodd" clip-rule="evenodd" d="M7.13672 19.6055C8.19098 19.5568 8.54645 20.0307 8.20313 21.0273C7.93882 21.2916 7.67446 21.556 7.41016 21.8203C6.62873 22.1588 6.13654 21.9127 5.93359 21.082C5.96395 20.8877 6.02771 20.7054 6.125 20.5351C6.44016 20.1923 6.77737 19.8824 7.13672 19.6055Z" fill="#F4F4F4"/>
</g>
<g id="Group_9">
<path id="Vector_9" opacity="0.945" fill-rule="evenodd" clip-rule="evenodd" d="M20.1523 19.6055C20.4588 19.5731 20.7505 19.6187 21.0273 19.7422C21.2916 20.0065 21.556 20.2709 21.8203 20.5352C22.1588 21.3166 21.9127 21.8088 21.082 22.0117C20.8876 21.9814 20.7054 21.9176 20.5351 21.8203C20.1938 21.5157 19.893 21.1784 19.6328 20.8086C19.4953 20.264 19.6685 19.863 20.1523 19.6055Z" fill="#F4F4F4"/>
</g>
<g id="Group_10">
<path id="Vector_10" opacity="0.961" fill-rule="evenodd" clip-rule="evenodd" d="M13.6445 22.2851C14.1838 22.1675 14.5757 22.3498 14.8203 22.832C14.8568 23.3424 14.8568 23.8529 14.8203 24.3633C14.5757 24.8545 14.1838 25.0277 13.6445 24.8828C13.3985 24.7825 13.2253 24.6093 13.125 24.3633C13.0885 23.8529 13.0885 23.3424 13.125 22.832C13.2356 22.5848 13.4088 22.4025 13.6445 22.2851Z" fill="#F4F4F4"/>
</g>
</g>
<defs>
<clipPath id="clip0_41_1744">
<rect width="28" height="28" fill="white"/>
</clipPath>
</defs>
</svg>
