<svg width="40" height="40" viewBox="0 0 40 40" fill="none" xmlns="http://www.w3.org/2000/svg">
<g id="free-icon-time-4854764">
<g id="Group">
<path id="Vector" opacity="0.964" fill-rule="evenodd" clip-rule="evenodd" d="M18.2422 1.21094C25.5216 0.834375 31.2899 3.56875 35.5469 9.41407C39.125 15.0816 39.6979 21.0452 37.2656 27.3047C34.5255 33.3448 29.9031 37.0557 23.3984 38.4375C16.2855 39.5045 10.3349 37.3821 5.54688 32.0703C1.43059 26.8539 0.232678 21.0206 1.95313 14.5703C4.02345 8.22915 8.22915 4.02344 14.5703 1.95313C15.7857 1.60852 17.0096 1.36112 18.2422 1.21094ZM19.8828 3.71094C26.0479 3.93376 30.7484 6.64209 33.9844 11.8359C36.5016 16.4793 36.8141 21.271 34.9219 26.2109C31.9124 32.6007 26.8602 35.9341 19.7656 36.2109C13.4652 35.8622 8.75157 32.9716 5.62501 27.5391C3.4689 23.1726 3.20848 18.6934 4.84376 14.1016C7.04757 8.85134 10.9148 5.53103 16.4453 4.14063C17.5918 3.90617 18.7377 3.76294 19.8828 3.71094Z" fill="#0074FF"/>
</g>
<g id="Group_2">
<path id="Vector_2" opacity="0.961" fill-rule="evenodd" clip-rule="evenodd" d="M19.4922 4.33591C20.2625 4.16791 20.8224 4.42832 21.1719 5.11716C21.224 5.84632 21.224 6.5755 21.1719 7.30466C20.8224 8.00638 20.2625 8.2538 19.4922 8.04685C19.1406 7.90364 18.8932 7.65622 18.75 7.30466C18.6979 6.5755 18.6979 5.84632 18.75 5.11716C18.908 4.76403 19.1554 4.50362 19.4922 4.33591Z" fill="#0074FF"/>
</g>
<g id="Group_3">
<path id="Vector_3" opacity="0.942" fill-rule="evenodd" clip-rule="evenodd" d="M9.41408 8.55466C9.82634 8.51021 10.217 8.57536 10.586 8.74997C10.9635 9.12755 11.3412 9.50521 11.7188 9.88279C12.2402 11.0014 11.9017 11.7045 10.7031 11.9922C10.4112 11.9551 10.1377 11.8639 9.88283 11.7187C9.39517 11.2835 8.96548 10.8017 8.59377 10.2734C8.39978 9.4563 8.67322 8.88333 9.41408 8.55466Z" fill="#0074FF"/>
</g>
<g id="Group_4">
<path id="Vector_4" opacity="0.942" fill-rule="evenodd" clip-rule="evenodd" d="M29.6484 8.55466C31.1546 8.48513 31.6624 9.16224 31.1719 10.5859C30.7943 10.9635 30.4166 11.3411 30.0391 11.7187C28.9205 12.2401 28.2173 11.9016 27.9297 10.7031C27.9668 10.4111 28.058 10.1377 28.2031 9.88279C28.6534 9.39302 29.1351 8.95029 29.6484 8.55466Z" fill="#0074FF"/>
</g>
<g id="Group_5">
<path id="Vector_5" opacity="0.979" fill-rule="evenodd" clip-rule="evenodd" d="M19.4922 10.586C20.2625 10.418 20.8224 10.6784 21.1719 11.3672C21.224 14.3881 21.224 17.4088 21.1719 20.4297C21.1198 20.5338 21.0677 20.6381 21.0156 20.7422C19.8828 21.875 18.75 23.0078 17.6172 24.1406C16.1823 24.6324 15.5182 24.1246 15.625 22.6172C16.5836 21.5022 17.5992 20.4345 18.6719 19.4141C18.6979 16.7318 18.724 14.0495 18.75 11.3672C18.908 11.0141 19.1554 10.7537 19.4922 10.586Z" fill="#0074FF"/>
</g>
<g id="Group_6">
<path id="Vector_6" opacity="0.961" fill-rule="evenodd" clip-rule="evenodd" d="M5.11717 18.7109C5.84681 18.6979 6.57597 18.7109 7.30467 18.75C8.00639 19.0994 8.25381 19.6594 8.04686 20.4297C7.90366 20.7812 7.65624 21.0287 7.30467 21.1719C6.57551 21.224 5.84634 21.224 5.11717 21.1719C4.41544 20.8224 4.16804 20.2625 4.37499 19.4922C4.53298 19.139 4.78038 18.8786 5.11717 18.7109Z" fill="#0074FF"/>
</g>
<g id="Group_7">
<path id="Vector_7" opacity="0.961" fill-rule="evenodd" clip-rule="evenodd" d="M32.6172 18.7109C33.3468 18.6979 34.076 18.7109 34.8047 18.75C35.5064 19.0994 35.7538 19.6594 35.5469 20.4297C35.4037 20.7812 35.1562 21.0287 34.8047 21.1719C34.0755 21.224 33.3463 21.224 32.6172 21.1719C31.9155 20.8224 31.668 20.2625 31.875 19.4922C32.033 19.139 32.2804 18.8786 32.6172 18.7109Z" fill="#0074FF"/>
</g>
<g id="Group_8">
<path id="Vector_8" opacity="0.945" fill-rule="evenodd" clip-rule="evenodd" d="M10.1953 28.0078C11.7014 27.9383 12.2092 28.6153 11.7188 30.039C11.3412 30.4166 10.9635 30.7943 10.5859 31.1718C9.46961 31.6554 8.76648 31.3038 8.47656 30.1172C8.51992 29.8395 8.61102 29.5791 8.75 29.3359C9.20023 28.8461 9.68195 28.4034 10.1953 28.0078Z" fill="#0074FF"/>
</g>
<g id="Group_9">
<path id="Vector_9" opacity="0.945" fill-rule="evenodd" clip-rule="evenodd" d="M28.7891 28.0078C29.227 27.9616 29.6437 28.0266 30.0391 28.2031C30.4166 28.5807 30.7943 28.9584 31.1719 29.3359C31.6554 30.4523 31.3038 31.1554 30.1172 31.4453C29.8395 31.402 29.5791 31.3109 29.3359 31.1719C28.8483 30.7366 28.4186 30.2548 28.0469 29.7266C27.8505 28.9486 28.0979 28.3756 28.7891 28.0078Z" fill="#0074FF"/>
</g>
<g id="Group_10">
<path id="Vector_10" opacity="0.961" fill-rule="evenodd" clip-rule="evenodd" d="M19.4922 31.836C20.2625 31.668 20.8224 31.9284 21.1719 32.6172C21.224 33.3463 21.224 34.0756 21.1719 34.8047C20.8224 35.5064 20.2625 35.7538 19.4922 35.5469C19.1406 35.4037 18.8932 35.1563 18.75 34.8047C18.6979 34.0756 18.6979 33.3463 18.75 32.6172C18.908 32.2641 19.1554 32.0037 19.4922 31.836Z" fill="#0074FF"/>
</g>
</g>
</svg>
