<svg width="28" height="28" viewBox="0 0 28 28" fill="none" xmlns="http://www.w3.org/2000/svg">
<g id="free-icon-checkmark-4855230" clip-path="url(#clip0_41_1774)">
<g id="Group">
<path id="Vector" opacity="0.964" fill-rule="evenodd" clip-rule="evenodd" d="M12.7695 0.847661C17.8651 0.584062 21.9029 2.49812 24.8828 6.58985C27.3875 10.5572 27.7885 14.7317 26.0859 19.1133C24.1678 23.3413 20.9322 25.939 16.3789 26.9063C11.3998 27.6531 7.23446 26.1675 3.88282 22.4492C1.00142 18.7977 0.162881 14.7144 1.3672 10.1992C2.81642 5.7604 5.76041 2.81641 10.1992 1.36719C11.05 1.12596 11.9067 0.952787 12.7695 0.847661ZM13.918 2.59766C18.2335 2.75363 21.5239 4.64947 23.7891 8.28516C25.5512 11.5355 25.7699 14.8897 24.4453 18.3477C22.3387 22.8205 18.8022 25.1539 13.8359 25.3477C9.42562 25.1035 6.12611 23.0801 3.93751 19.2773C2.42824 16.2208 2.24594 13.0854 3.39064 9.8711C4.93331 6.19593 7.64035 3.87172 11.5117 2.89844C12.3143 2.73432 13.1164 2.63406 13.918 2.59766Z" fill="#F4F4F4"/>
</g>
<g id="Group_2">
<path id="Vector_2" opacity="0.96" fill-rule="evenodd" clip-rule="evenodd" d="M18.0742 10.0351C18.7753 9.94676 19.1581 10.2475 19.2226 10.9375C19.2354 11.1266 19.1897 11.2998 19.0859 11.457C16.9804 13.5625 14.875 15.6679 12.7695 17.7734C12.4049 17.9557 12.0403 17.9557 11.6757 17.7734C10.7369 16.8346 9.79815 15.8958 8.85933 14.957C8.66382 14.5615 8.68209 14.1787 8.91402 13.8086C9.29071 13.502 9.70086 13.4564 10.1445 13.6719C10.8189 14.3463 11.4935 15.0208 12.1679 15.6953C12.2044 15.7318 12.2408 15.7318 12.2773 15.6953C14.1185 13.8541 15.9596 12.013 17.8007 10.1719C17.9 10.1305 17.9911 10.0849 18.0742 10.0351Z" fill="#F4F4F4"/>
</g>
</g>
<defs>
<clipPath id="clip0_41_1774">
<rect width="28" height="28" fill="white"/>
</clipPath>
</defs>
</svg>
