<svg width="100" height="100" viewBox="0 0 100 100" fill="none" xmlns="http://www.w3.org/2000/svg">
<g id="VK Logo 1" clip-path="url(#clip0_37_250)">
<g id="Clip path group">
<mask id="mask0_37_250" style="mask-type:luminance" maskUnits="userSpaceOnUse" x="0" y="0" width="100" height="100">
<g id="clip0_2_40">
<path id="Vector" d="M99.505 0H0.495117V100H99.505V0Z" fill="white"/>
</g>
</mask>
<g mask="url(#mask0_37_250)">
<g id="Group">
<path id="Vector_2" d="M0.495117 48C0.495117 25.3726 0.495117 14.0589 7.45496 7.02944C14.4148 0 25.6165 0 48.0199 0H51.9803C74.3836 0 85.5853 0 92.5452 7.02944C99.505 14.0589 99.505 25.3726 99.505 48V52C99.505 74.6274 99.505 85.9411 92.5452 92.9706C85.5853 100 74.3836 100 51.9803 100H48.0199C25.6165 100 14.4148 100 7.45496 92.9706C0.495117 85.9411 0.495117 74.6274 0.495117 52V48Z" fill="#0077FF"/>
<path id="Vector_3" d="M53.1767 72.042C30.6106 72.042 17.7395 56.417 17.2031 30.417H28.5068C28.8781 49.5003 37.2112 57.5836 43.8118 59.2503V30.417H54.4558V46.8752C60.9739 46.1669 67.8213 38.667 70.1315 30.417H80.7754C79.0014 40.5837 71.5757 48.0836 66.2952 51.1669C71.5757 53.6669 80.0332 60.2086 83.2511 72.042H71.5345C69.018 64.1253 62.7479 58.0003 54.4558 57.1669V72.042H53.1767Z" fill="white"/>
</g>
</g>
</g>
</g>
<defs>
<clipPath id="clip0_37_250">
<rect width="100" height="100" fill="white"/>
</clipPath>
</defs>
</svg>
