<svg width="32" height="32" viewBox="0 0 32 32" fill="none" xmlns="http://www.w3.org/2000/svg">
<g id="Right">
<path id="Subtract" fill-rule="evenodd" clip-rule="evenodd" d="M0 5C0 2.23858 2.23858 0 5 0H27C29.7614 0 32 2.23858 32 5V27C32 29.7614 29.7614 32 27 32H5C2.23858 32 0 29.7614 0 27V5ZM11.4107 15.25L14.9304 11.7304C15.2232 11.4375 15.2232 10.9626 14.9304 10.6697C14.6375 10.3768 14.1626 10.3768 13.8697 10.6697L9.7768 14.7626C9.09338 15.446 9.09338 16.5541 9.7768 17.2375L13.8697 21.3304C14.1626 21.6233 14.6375 21.6233 14.9304 21.3304C15.2232 21.0375 15.2232 20.5626 14.9304 20.2697L11.4107 16.75L22.4 16.75C22.8142 16.75 23.15 16.4143 23.15 16C23.15 15.5858 22.8142 15.25 22.4 15.25L11.4107 15.25Z" fill="#0074FF"/>
</g>
</svg>
