<svg width="24" height="24" viewBox="0 0 24 24" fill="none" xmlns="http://www.w3.org/2000/svg">
<g id="Star">
<path id="Star 2" d="M10.9718 1.70847C11.4382 0.933482 12.5618 0.933482 13.0282 1.70847L15.6878 6.12782C15.8553 6.40623 16.1286 6.6048 16.4452 6.67811L21.4701 7.84189C22.3513 8.04597 22.6985 9.11454 22.1056 9.79759L18.7244 13.6927C18.5114 13.9381 18.407 14.2593 18.4351 14.5831L18.881 19.7217C18.9592 20.6228 18.0502 21.2832 17.2174 20.9304L12.4681 18.9183C12.1689 18.7916 11.8311 18.7916 11.5319 18.9183L6.7826 20.9304C5.94975 21.2832 5.04078 20.6228 5.11898 19.7217L5.56494 14.5831C5.59304 14.2593 5.48865 13.9381 5.27564 13.6927L1.89445 9.79759C1.30152 9.11454 1.64871 8.04597 2.52989 7.84189L7.55481 6.67811C7.87137 6.6048 8.14467 6.40623 8.31222 6.12782L10.9718 1.70847Z" fill="#F0C330"/>
</g>
</svg>
