<svg width="24" height="24" viewBox="0 0 24 24" fill="none" xmlns="http://www.w3.org/2000/svg">
<g id="VK Logo 2" clip-path="url(#clip0_29_130)">
<g id="Clip path group">
<mask id="mask0_29_130" style="mask-type:luminance" maskUnits="userSpaceOnUse" x="0" y="0" width="24" height="24">
<g id="clip0_2_40">
<path id="Vector" d="M23.8812 0H0.118813V24H23.8812V0Z" fill="white"/>
</g>
</mask>
<g mask="url(#mask0_29_130)">
<g id="Group">
<path id="Vector_2" d="M0.118813 11.52C0.118813 6.08942 0.118813 3.37414 1.78917 1.68707C3.45954 0 6.14795 0 11.5248 0H12.4752C17.8521 0 20.5405 0 22.2108 1.68707C23.8812 3.37414 23.8812 6.08942 23.8812 11.52V12.48C23.8812 17.9106 23.8812 20.6259 22.2108 22.3129C20.5405 24 17.8521 24 12.4752 24H11.5248C6.14795 24 3.45954 24 1.78917 22.3129C0.118813 20.6259 0.118813 17.9106 0.118813 12.48V11.52Z" fill="#0077FF"/>
<path id="Vector_3" d="M12.7624 17.29C7.34657 17.29 4.25748 13.54 4.12876 7.30005H6.84164C6.93075 11.88 8.93071 13.82 10.5149 14.22V7.30005H13.0694V11.25C14.6338 11.08 16.2771 9.28005 16.8316 7.30005H19.3861C18.9604 9.74006 17.1782 11.54 15.9109 12.28C17.1782 12.88 19.208 14.45 19.9803 17.29H17.1683C16.5643 15.39 15.0595 13.92 13.0694 13.72V17.29H12.7624Z" fill="white"/>
</g>
</g>
</g>
</g>
<defs>
<clipPath id="clip0_29_130">
<rect width="24" height="24" fill="white"/>
</clipPath>
</defs>
</svg>
