<svg width="49" height="30" viewBox="0 0 49 30" fill="none" xmlns="http://www.w3.org/2000/svg">
<g id="mastercard-logo-52 1" clip-path="url(#clip0_22_131)">
<g id="Components---Sprint-3">
<g id="assets-/-logo-/-mastercard-/-symbol">
<path id="Fill-1" fill-rule="evenodd" clip-rule="evenodd" d="M17.6018 26.7542H30.6494V3.20239H17.6018V26.7542Z" fill="#FF5F00"/>
<path id="Fill-2" fill-rule="evenodd" clip-rule="evenodd" d="M18.4302 14.9784C18.4302 10.2003 20.6574 5.94476 24.1256 3.20246C21.589 1.19661 18.3888 0 14.9103 0C6.67539 0 0 6.70616 0 14.9784C0 23.2506 6.67539 29.9568 14.9103 29.9568C18.3888 29.9568 21.589 28.7602 24.1256 26.7543C20.6574 24.0116 18.4302 19.7565 18.4302 14.9784Z" fill="#EB001B"/>
<path id="Fill-4" fill-rule="evenodd" clip-rule="evenodd" d="M47.7858 24.2598V23.6785H47.6346L47.461 24.0783L47.2871 23.6785H47.1359V24.2598H47.2423V23.8212L47.4055 24.1994H47.5161L47.6793 23.8204V24.2598H47.7858ZM46.8285 24.2598V23.7775H47.0224V23.6793H46.5295V23.7775H46.7229V24.2598H46.8285ZM48.2513 14.9781C48.2513 23.2504 41.5755 29.9565 33.3411 29.9565C29.8625 29.9565 26.6619 28.7599 24.1257 26.7541C27.5939 24.0118 29.8211 19.7563 29.8211 14.9781C29.8211 10.2005 27.5939 5.94493 24.1257 3.20222C26.6619 1.19636 29.8625 -0.000244141 33.3411 -0.000244141C41.5755 -0.000244141 48.2513 6.70591 48.2513 14.9781Z" fill="#F79E1B"/>
</g>
</g>
</g>
<defs>
<clipPath id="clip0_22_131">
<rect width="48.75" height="30" fill="white"/>
</clipPath>
</defs>
</svg>
