<svg width="107" height="30" viewBox="0 0 107 30" fill="none" xmlns="http://www.w3.org/2000/svg">
<g id="Group 128">
<path id="Vector" d="M75.9983 14.2417V29.9722H85.5784V21.1238H95.2148C100.257 21.1238 104.543 18.2587 106.196 14.2417H75.9983Z" fill="#006848"/>
<path id="Vector_2" d="M103.254 2.7808C101.377 1.06742 98.9115 0 96.1664 0H75.5772C75.6052 0.814542 75.7454 1.57296 75.9133 2.33138C75.9695 2.49996 75.9974 2.66855 76.0535 2.83713C76.0815 2.89326 76.0815 2.97755 76.1095 3.03367C77.8184 8.45507 82.8885 12.4157 88.8551 12.4157H106.531C106.643 11.7977 106.699 11.1797 106.699 10.5617C106.699 7.47194 105.354 4.7191 103.254 2.7808Z" fill="url(#paint0_linear_22_156)"/>
<path id="Vector_3" d="M59.0502 3.17409L52.3552 17.7247H51.683V0H42.1588V30H50.2263C52.3552 30 54.2882 28.764 55.1565 26.8259L61.8514 12.2753H62.5237V30H72.0478V0H63.9803C61.8514 0 59.9467 1.236 59.0502 3.17409Z" fill="#006848"/>
<path id="Vector_4" d="M14.7345 3.93251L18.7123 17.7247H19.3846L23.3343 3.93251C24.0067 1.60113 26.1356 0 28.5726 0H38.0688V30H28.5446V12.2753H27.8724L22.438 30H15.6309L10.1965 12.2753H9.52421V30H0V0H9.49619C11.9333 0 14.0622 1.60113 14.7345 3.93251Z" fill="#006848"/>
</g>
<defs>
<linearGradient id="paint0_linear_22_156" x1="75.5644" y1="6.21609" x2="106.689" y2="6.21609" gradientUnits="userSpaceOnUse">
<stop offset="0.00537635" stop-color="#00AFFF"/>
<stop offset="1" stop-color="#1F5BD7"/>
</linearGradient>
</defs>
</svg>
