<svg width="20" height="20" viewBox="0 0 20 20" fill="none" xmlns="http://www.w3.org/2000/svg">
<g id="Down">
<path id="Subtract" fill-rule="evenodd" clip-rule="evenodd" d="M20 15C20 17.7614 17.7614 20 15 20L5 20C2.23858 20 2.66948e-08 17.7614 5.96244e-08 15L1.78873e-07 5C2.11803e-07 2.23858 2.23858 -2.11803e-07 5 -1.78873e-07L15 -5.96244e-08C17.7614 -2.66948e-08 20 2.23858 20 5L20 15ZM9.82322 10.7626C9.92085 10.8602 10.0791 10.8602 10.1768 10.7626L12.4697 8.46967C12.7626 8.17678 13.2374 8.17678 13.5303 8.46967C13.8232 8.76256 13.8232 9.23744 13.5303 9.53033L11.2374 11.8232C10.554 12.5066 9.44598 12.5066 8.76256 11.8232L6.46967 9.53033C6.17678 9.23744 6.17678 8.76256 6.46967 8.46967C6.76256 8.17678 7.23744 8.17678 7.53033 8.46967L9.82322 10.7626Z" fill="#F4F4F4"/>
</g>
</svg>
